<svg width="20" height="17" viewBox="0 0 20 17" fill="none" xmlns="http://www.w3.org/2000/svg"> <path d="M19.8402 15.3631L10.8403 0.488086C10.6562 0.183945 10.3393 0 9.99902 0C9.65872 0 9.34184 0.183945 9.15778 0.488086L0.15787 15.3631C0.0607473 15.5236 0.00609894 15.7089 -0.00033458 15.8996C-0.0067681 16.0903 0.0352506 16.2793 0.121308 16.4468C0.207405 16.6143 0.334347 16.754 0.488804 16.8513C0.64326 16.9487 0.819533 17 0.999112 17H18.9989C19.3649 17 19.7014 16.7878 19.8767 16.4465C19.9628 16.2791 20.0048 16.0901 19.9984 15.8995C19.9919 15.7088 19.9373 15.5235 19.8402 15.3631ZM9.99902 3.02746L12.6674 7.4375H9.99902L7.99904 9.5625L6.80968 8.29879L9.99902 3.02746Z" fill="#5AD787"/> </svg>
